# xmcd
#
# Track frame offsets:
#	150
#	16362
#	33069
#	50270
#	62718
#	77573
#	96408
#	112468
#	129821
#	146664
#	155870
#	172598
#	184531
#	199527
#	223315
#	239858
#	253658
#	266723
#	283884
#	301897
#
# Disc length: 4243
#
# Revision: 3
# Processed by: cddbd v1.5.1PL0 Copyright (c) Steve Scherf et al.
# Submitted via: OrangeCD 5.2
# Normalized: r2:DSETVAR1
#
DISCID=26109114
DTITLE=Various Artist - Line Dance Fever 10
DYEAR=2000
DGENRE=Country
TTITLE0=Scooch - Syncopated Rhythm
TTITLE1=Fenua - E Vahine Maohi E
TTITLE2=Ann Lee - Two Times
TTITLE3=Sara Evans - Wait A Minute
TTITLE4=Chely Wright - Single White Female
TTITLE5=Kenny Rodgers/Dolly Parton - Islands In The Stream
TTITLE6=Leann Rimes - The Rose
TTITLE7=Robert Earl Keen - That Buckin' Song
TTITLE8=Ronan Hardiman - Duelling Violins
TTITLE9=Millie - My Boy Lollipop
TTITLE10=Sean Kenny - Mister Right
TTITLE11=Heather Myles - Playing Every Honky Tonk In Town
TTITLE12=Brad Paisley - Me Neither
TTITLE13=Vaquero - Time
TTITLE14=The Bellamy Brothers - Vertical Expression
TTITLE15=The Dean Brothers - These Boots Are Ready To Dance
TTITLE16=Hank Williams III - If The Shoe Fits
TTITLE17=Mental As Anything - Live It Up
TTITLE18=Mary Griffin - We Can Get There (Tp2k Hot Radio)
TTITLE19=The Jungle Rumble Band - The Lion Sleeps Tonight
EXTD=
EXTT0=
EXTT1=
EXTT2=
EXTT3=
EXTT4=
EXTT5=
EXTT6=
EXTT7=
EXTT8=
EXTT9=
EXTT10=
EXTT11=
EXTT12=
EXTT13=
EXTT14=
EXTT15=
EXTT16=
EXTT17=
EXTT18=
EXTT19=
PLAYORDER=
